<svg xmlns="http://www.w3.org/2000/svg" width="1200" height="630" viewBox="0 0 1200 630" role="img" aria-labelledby="title description">
  <title id="title">Steven Naviaux, Systems Craft</title>
  <desc id="description">A field-manual style social card with Steven Naviaux's systems engineering statement.</desc>
  <rect width="1200" height="630" fill="#f6f4ef"/>
  <g fill="none" stroke="#d9d3c8" stroke-width="2">
    <path d="M0 92H1200M0 548H1200"/>
    <path d="M864 92V548"/>
    <path d="M910 164L1058 118L1142 225L1004 324L1108 452L936 514"/>
    <path d="M902 424L1010 390L1138 502" stroke-dasharray="7 10"/>
  </g>
  <g fill="#f6f4ef" stroke="#b9afa1" stroke-width="2">
    <circle cx="910" cy="164" r="7"/>
    <circle cx="1058" cy="118" r="7"/>
    <circle cx="1142" cy="225" r="7"/>
    <circle cx="1004" cy="324" r="7"/>
    <circle cx="1108" cy="452" r="7"/>
    <circle cx="936" cy="514" r="7"/>
  </g>
  <circle cx="1004" cy="324" r="7" fill="#285b48" stroke="#285b48" stroke-width="2"/>
  <rect x="64" y="42" width="44" height="44" rx="9" fill="#18201f"/>
  <text x="86" y="70" text-anchor="middle" fill="#f6f4ef" font-family="ui-monospace, SFMono-Regular, Menlo, monospace" font-size="14" font-weight="700">SN</text>
  <text x="124" y="70" fill="#12141a" font-family="Inter, Arial, sans-serif" font-size="19" font-weight="800">Steven Naviaux</text>
  <text x="64" y="164" fill="#285b48" font-family="ui-monospace, SFMono-Regular, Menlo, monospace" font-size="16" font-weight="700" letter-spacing="3">SYSTEMS ENGINEER · BUILDER · OPERATOR</text>
  <text x="64" y="235" fill="#12141a" font-family="Inter, Arial, sans-serif" font-size="59" font-weight="850" letter-spacing="-2">
    <tspan x="64" dy="0">I make messy systems</tspan>
    <tspan x="64" dy="66">easier to understand,</tspan>
    <tspan x="64" dy="66" fill="#285b48">operate, and trust.</tspan>
  </text>
  <text x="64" y="486" fill="#58616f" font-family="Inter, Arial, sans-serif" font-size="23" font-weight="500">Identity · Cloud · Platform · AI operations</text>
  <text x="64" y="580" fill="#58616f" font-family="ui-monospace, SFMono-Regular, Menlo, monospace" font-size="15">stevennaviaux.com</text>
  <text x="1136" y="580" text-anchor="end" fill="#285b48" font-family="ui-monospace, SFMono-Regular, Menlo, monospace" font-size="15">signal → evidence → conversation</text>
</svg>
